<?xml version="1.0" encoding="utf-8"?><!-- Uploaded to: SVG Repo, www.svgrepo.com, Generator: SVG Repo Mixer Tools -->
<svg fill="#000000" width="800px" height="800px" viewBox="0 0 24 24" id="bank" data-name="Flat Color" xmlns="http://www.w3.org/2000/svg" class="icon flat-color"><path id="secondary" d="M18,22a1,1,0,0,1-1-1V9a1,1,0,0,1,2,0V21A1,1,0,0,1,18,22Zm-6,0a1,1,0,0,1-1-1V9a1,1,0,0,1,2,0V21A1,1,0,0,1,12,22ZM6,22a1,1,0,0,1-1-1V9A1,1,0,0,1,7,9V21A1,1,0,0,1,6,22Z" style="fill: rgb(44, 169, 188);"></path><path id="primary" d="M22,21a1,1,0,0,1-1,1H3a1,1,0,0,1,0-2H21A1,1,0,0,1,22,21ZM3,10H21a1,1,0,0,0,.55-1.83l-9-6a1,1,0,0,0-1.1,0l-9,6A1,1,0,0,0,3,10Z" style="fill: rgb(0, 0, 0);"></path></svg>