<?xml version="1.0" encoding="utf-8"?>
<!-- Uploaded to: SVG Repo, www.svgrepo.com, Generator: SVG Repo Mixer Tools -->
<svg fill="#000000" height="800px" width="800px" version="1.1" id="Layer_1" xmlns="http://www.w3.org/2000/svg" xmlns:xlink="http://www.w3.org/1999/xlink" 
	 viewBox="0 0 256 205" xml:space="preserve">
<g>
	<path d="M224.4,124.3h-29.3h-29.3c-17.8,0-29,14.7-29,33.2v45.4h20v-40.1c0-1.9,1.5-3.1,3.1-3.1c1.9,0,3.1,1.2,3.1,3.1v40h64.3v-40
		c0-1.9,1.5-3.1,3.1-3.1c1.9,0,3.1,1.5,3.1,3.1v40h20v-45.1C253.8,139.1,242.5,124.3,224.4,124.3z"/>
	<circle cx="61.4" cy="93.5" r="26"/>
	<path d="M22.6,202.7v-40c0-1.9,1.5-3.1,3.1-3.1c1.9,0,3.1,1.2,3.1,3.1v40h64.3v-40c0-1.9,1.5-3.1,3.1-3.1c1.9,0,3.1,1.5,3.1,3.1v40
		h20v-45.1c0.3-18.7-11-33.5-29-33.5H61.1H31.8c-17.8,0-29,14.7-29,33.2v45.4L22.6,202.7L22.6,202.7z"/>
	<path d="M169.1,93.5c0,14.4,11.6,26,26,26s26-11.6,26-26s-11.6-26-26-26S169.1,79.1,169.1,93.5z"/>
	<circle cx="94.7" cy="28.7" r="26"/>
	<circle cx="165" cy="28.7" r="26"/>
	<circle cx="130" cy="93.5" r="26"/>
</g>
</svg>