<?xml version="1.0" encoding="utf-8"?><!-- Uploaded to: SVG Repo, www.svgrepo.com, Generator: SVG Repo Mixer Tools -->
<svg fill="#000000" width="800px" height="800px" viewBox="0 0 24 24" id="tax-left" data-name="Flat Color" xmlns="http://www.w3.org/2000/svg" class="icon flat-color"><path id="primary" d="M7,13A6,6,0,0,0,10.31,2H20a2,2,0,0,1,2,2V20a2,2,0,0,1-2,2H7a2,2,0,0,1-2-2V12.65A6,6,0,0,0,7,13Z" style="fill: rgb(0, 0, 0);"></path><path id="secondary" d="M9,17a1,1,0,0,1,1-1h8a1,1,0,0,1,0,2H10A1,1,0,0,1,9,17Zm4-4a1,1,0,0,1,1-1h4a1,1,0,0,1,0,2H14A1,1,0,0,1,13,13ZM3,11a1,1,0,0,1-.71-.29,1,1,0,0,1,0-1.42l6-6A1,1,0,1,1,9.71,4.71l-6,6A1,1,0,0,1,3,11ZM8.5,8A1.5,1.5,0,1,0,10,9.5,1.5,1.5,0,0,0,8.5,8Zm-5-5A1.5,1.5,0,1,0,5,4.5,1.5,1.5,0,0,0,3.5,3Z" style="fill: rgb(44, 169, 188);"></path></svg>